# 3ds Max Wavefront OBJ Exporter v0.99 - (c)2007 guruware
# 创建的文件:27.06.2022 19:20:51

mtllib dengxiang.mtl

#
# object Cylinder001
#

v  -7463.0000 10000.0000 500.0004
v  7537.0000 10000.0000 -499.9996
v  7537.0000 10000.0000 500.0004
v  -7463.0000 15000.0000 500.0004
v  7537.0000 15000.0000 -499.9996
v  -7463.0000 15000.0000 -499.9996
v  7537.0000 15000.0000 500.0004
v  -7463.0000 10000.0000 -499.9996
# 8 vertices

vn -0.5774 -0.5774 0.5774
vn 0.5774 -0.5774 -0.5774
vn 0.5774 -0.5774 0.5774
vn -0.5774 0.5774 0.5774
vn 0.5774 0.5774 -0.5774
vn -0.5774 0.5774 -0.5774
vn 0.5774 0.5774 0.5774
vn -0.5774 -0.5774 -0.5774
# 8 vertex normals

vt 0.0200 0.7065 0.0000
vt 0.8150 0.7595 0.0000
vt 0.8150 0.7065 0.0000
vt 0.0200 0.6191 0.0000
vt 0.8150 0.6721 0.0000
vt 0.0200 0.6721 0.0000
vt 0.0200 0.3196 0.0000
vt 0.8150 0.5846 0.0000
vt 0.0200 0.5846 0.0000
vt 0.8968 0.5817 0.0000
vt 0.8438 0.8467 0.0000
vt 0.8968 0.8467 0.0000
vt 0.8150 0.0200 0.0000
vt 0.0200 0.2850 0.0000
vt 0.8150 0.2850 0.0000
vt 0.9270 0.5817 0.0000
vt 0.9800 0.8467 0.0000
vt 0.9270 0.8467 0.0000
vt 0.0200 0.7595 0.0000
vt 0.8150 0.6191 0.0000
vt 0.8150 0.3196 0.0000
vt 0.8438 0.5817 0.0000
vt 0.0200 0.0200 0.0000
vt 0.9800 0.5817 0.0000
# 24 texture coords

o Cylinder001
g Cylinder001
usemtl 01___Default
f 1/1/1 2/2/2 3/3/3 
f 4/4/4 5/5/5 6/6/6 
f 1/7/1 7/8/7 4/9/4 
f 3/10/3 5/11/5 7/12/7 
f 2/13/2 6/14/6 5/15/5 
f 8/16/8 4/17/4 6/18/6 
f 1/1/1 8/19/8 2/2/2 
f 4/4/4 7/20/7 5/5/5 
f 1/7/1 3/21/3 7/8/7 
f 3/10/3 2/22/2 5/11/5 
f 2/13/2 8/23/8 6/14/6 
f 8/16/8 1/24/1 4/17/4 
# 0 polygons - 12 triangles

