# 3ds Max Wavefront OBJ Exporter v0.99 - (c)2007 guruware
# 创建的文件:27.06.2022 19:21:09

mtllib zhuzi.mtl

#
# object Cylinder001
#

v  375.8770 0.0000 136.8083
v  306.4176 0.0000 257.1152
v  400.0000 0.0000 -0.0000
v  375.8770 10000.0000 -136.8081
v  400.0000 10000.0000 -0.0000
v  375.8770 0.0000 -136.8081
v  306.4178 10000.0000 -257.1151
v  306.4178 0.0000 -257.1151
v  200.0000 10000.0000 -346.4102
v  200.0000 0.0000 -346.4102
v  69.4592 10000.0000 -393.9231
v  69.4592 0.0000 -393.9231
v  -69.4593 10000.0000 -393.9231
v  -69.4593 0.0000 -393.9231
v  -200.0000 10000.0000 -346.4102
v  -200.0000 0.0000 -346.4102
v  -306.4178 10000.0000 -257.1151
v  -306.4178 0.0000 -257.1151
v  -375.8770 10000.0000 -136.8081
v  -375.8770 0.0000 -136.8081
v  -400.0000 10000.0000 -0.0001
v  -400.0000 0.0000 -0.0001
v  -375.8771 10000.0000 136.8080
v  -375.8771 0.0000 136.8080
v  -306.4178 10000.0000 257.1150
v  -306.4178 0.0000 257.1150
v  -200.0001 10000.0000 346.4101
v  -200.0001 0.0000 346.4101
v  -69.4594 10000.0000 393.9231
v  -69.4594 0.0000 393.9231
v  69.4591 10000.0000 393.9231
v  69.4591 0.0000 393.9231
v  199.9998 10000.0000 346.4103
v  199.9998 0.0000 346.4103
v  306.4176 10000.0000 257.1152
v  375.8770 10000.0000 136.8083
# 36 vertices

vn 0.6976 -0.6700 0.2539
vn 0.5687 -0.6700 0.4772
vn 0.7423 -0.6701 -0.0000
vn 0.6976 0.6700 -0.2539
vn 0.7423 0.6701 0.0000
vn 0.6975 -0.6701 -0.2539
vn 0.5686 0.6701 -0.4771
vn 0.5687 -0.6700 -0.4772
vn 0.3712 0.6701 -0.6428
vn 0.3711 -0.6701 -0.6429
vn 0.1289 0.6700 -0.7311
vn 0.1289 -0.6701 -0.7310
vn -0.1289 0.6700 -0.7311
vn -0.1289 -0.6700 -0.7311
vn -0.3712 0.6700 -0.6429
vn -0.3712 -0.6700 -0.6429
vn -0.5687 0.6700 -0.4772
vn -0.5687 -0.6700 -0.4772
vn -0.6975 0.6701 -0.2539
vn -0.6976 -0.6700 -0.2539
vn -0.7423 0.6700 -0.0000
vn -0.7423 -0.6701 0.0000
vn -0.6976 0.6700 0.2539
vn -0.6976 -0.6700 0.2539
vn -0.5686 0.6701 0.4771
vn -0.5687 -0.6700 0.4772
vn -0.3712 0.6700 0.6429
vn -0.3711 -0.6701 0.6429
vn -0.1289 0.6700 0.7311
vn -0.1289 -0.6700 0.7311
vn 0.1289 0.6700 0.7311
vn 0.1289 -0.6700 0.7311
vn 0.3712 0.6700 0.6429
vn 0.3712 -0.6700 0.6429
vn 0.5687 0.6700 0.4772
vn 0.6975 0.6701 0.2539
# 36 vertex normals

vt 0.0778 0.7950 0.0000
vt 0.0741 0.7886 0.0000
vt 0.0790 0.8023 0.0000
vt 0.8438 0.0200 0.0000
vt 0.8512 0.5500 0.0000
vt 0.8438 0.5500 0.0000
vt 0.8512 0.0200 0.0000
vt 0.8586 0.5500 0.0000
vt 0.8586 0.0200 0.0000
vt 0.8660 0.5500 0.0000
vt 0.8660 0.0200 0.0000
vt 0.8734 0.5500 0.0000
vt 0.8734 0.0200 0.0000
vt 0.8808 0.5500 0.0000
vt 0.8808 0.0200 0.0000
vt 0.8882 0.5500 0.0000
vt 0.8882 0.0200 0.0000
vt 0.8956 0.5500 0.0000
vt 0.8956 0.0200 0.0000
vt 0.9030 0.5500 0.0000
vt 0.9030 0.0200 0.0000
vt 0.9104 0.5500 0.0000
vt 0.9104 0.0200 0.0000
vt 0.9178 0.5500 -0.0000
vt 0.9178 0.0200 -0.0000
vt 0.9252 0.5500 0.0000
vt 0.9252 0.0200 0.0000
vt 0.9326 0.5500 0.0000
vt 0.9326 0.0200 0.0000
vt 0.9400 0.5500 -0.0000
vt 0.9400 0.0200 -0.0000
vt 0.9474 0.5500 0.0000
vt 0.9474 0.0200 0.0000
vt 0.9548 0.5500 0.0000
vt 0.9548 0.0200 0.0000
vt 0.9622 0.5500 -0.0000
vt 0.9622 0.0200 -0.0000
vt 0.9696 0.5500 0.0000
vt 0.9696 0.0200 0.0000
vt 0.9770 0.5500 0.0000
vt 0.8142 0.8075 0.0000
vt 0.8155 0.8147 0.0000
vt 0.8105 0.8011 0.0000
vt 0.0684 0.7839 0.0000
vt 0.0615 0.7814 0.0000
vt 0.0542 0.7814 0.0000
vt 0.0472 0.7839 0.0000
vt 0.0416 0.7886 0.0000
vt 0.0379 0.7950 0.0000
vt 0.0366 0.8023 0.0000
vt 0.0379 0.8095 0.0000
vt 0.0416 0.8159 0.0000
vt 0.0472 0.8206 0.0000
vt 0.0542 0.8231 0.0000
vt 0.0615 0.8231 0.0000
vt 0.0684 0.8206 0.0000
vt 0.0741 0.8159 0.0000
vt 0.0778 0.8095 0.0000
vt 0.9770 0.0200 0.0000
vt 0.8142 0.8220 0.0000
vt 0.8105 0.8284 0.0000
vt 0.8049 0.8331 0.0000
vt 0.7979 0.8356 0.0000
vt 0.7906 0.8356 0.0000
vt 0.7837 0.8331 0.0000
vt 0.7780 0.8284 0.0000
vt 0.7743 0.8220 0.0000
vt 0.7731 0.8147 0.0000
vt 0.7743 0.8075 0.0000
vt 0.7780 0.8011 0.0000
vt 0.7837 0.7964 0.0000
vt 0.7906 0.7939 0.0000
vt 0.7979 0.7939 0.0000
vt 0.8049 0.7964 0.0000
# 74 texture coords

o Cylinder001
g Cylinder001
usemtl 01___Default
f 1/1/1 2/2/2 3/3/3 
f 3/4/3 4/5/4 5/6/5 
f 6/7/6 7/8/7 4/5/4 
f 8/9/8 9/10/9 7/8/7 
f 10/11/10 11/12/11 9/10/9 
f 12/13/12 13/14/13 11/12/11 
f 14/15/14 15/16/15 13/14/13 
f 16/17/16 17/18/17 15/16/15 
f 18/19/18 19/20/19 17/18/17 
f 20/21/20 21/22/21 19/20/19 
f 22/23/22 23/24/23 21/22/21 
f 24/25/24 25/26/25 23/24/23 
f 26/27/26 27/28/27 25/26/25 
f 28/29/28 29/30/29 27/28/27 
f 30/31/30 31/32/31 29/30/29 
f 32/33/32 33/34/33 31/32/31 
f 34/35/34 35/36/35 33/34/33 
f 2/37/2 36/38/36 35/36/35 
f 1/39/1 5/40/5 36/38/36 
f 36/41/36 5/42/5 35/43/35 
f 2/2/2 34/44/34 32/45/32 
f 32/45/32 30/46/30 28/47/28 
f 28/47/28 26/48/26 24/49/24 
f 32/45/32 28/47/28 24/49/24 
f 24/49/24 22/50/22 20/51/20 
f 20/51/20 18/52/18 16/53/16 
f 24/49/24 20/51/20 16/53/16 
f 16/53/16 14/54/14 12/55/12 
f 12/55/12 10/56/10 8/57/8 
f 16/53/16 12/55/12 8/57/8 
f 24/49/24 16/53/16 8/57/8 
f 32/45/32 24/49/24 8/57/8 
f 8/57/8 6/58/6 3/3/3 
f 32/45/32 8/57/8 3/3/3 
f 2/2/2 32/45/32 3/3/3 
f 3/4/3 6/7/6 4/5/4 
f 6/7/6 8/9/8 7/8/7 
f 8/9/8 10/11/10 9/10/9 
f 10/11/10 12/13/12 11/12/11 
f 12/13/12 14/15/14 13/14/13 
f 14/15/14 16/17/16 15/16/15 
f 16/17/16 18/19/18 17/18/17 
f 18/19/18 20/21/20 19/20/19 
f 20/21/20 22/23/22 21/22/21 
f 22/23/22 24/25/24 23/24/23 
f 24/25/24 26/27/26 25/26/25 
f 26/27/26 28/29/28 27/28/27 
f 28/29/28 30/31/30 29/30/29 
f 30/31/30 32/33/32 31/32/31 
f 32/33/32 34/35/34 33/34/33 
f 34/35/34 2/37/2 35/36/35 
f 2/37/2 1/39/1 36/38/36 
f 1/39/1 3/59/3 5/40/5 
f 5/42/5 4/60/4 7/61/7 
f 7/61/7 9/62/9 11/63/11 
f 11/63/11 13/64/13 15/65/15 
f 7/61/7 11/63/11 15/65/15 
f 15/65/15 17/66/17 19/67/19 
f 19/67/19 21/68/21 23/69/23 
f 15/65/15 19/67/19 23/69/23 
f 23/69/23 25/70/25 27/71/27 
f 27/71/27 29/72/29 31/73/31 
f 23/69/23 27/71/27 31/73/31 
f 15/65/15 23/69/23 31/73/31 
f 7/61/7 15/65/15 31/73/31 
f 31/73/31 33/74/33 35/43/35 
f 7/61/7 31/73/31 35/43/35 
f 5/42/5 7/61/7 35/43/35 
# 0 polygons - 68 triangles

